<?xml version="1.0" standalone="no"?>
<!DOCTYPE svg PUBLIC "-//W3C//DTD SVG 20010904//EN"
 "http://www.w3.org/TR/2001/REC-SVG-20010904/DTD/svg10.dtd">
<svg version="1.0" xmlns="http://www.w3.org/2000/svg"
 width="512.000000pt" height="512.000000pt" viewBox="0 0 512.000000 512.000000"
 preserveAspectRatio="xMidYMid meet">

<g transform="translate(0.000000,512.000000) scale(0.100000,-0.100000)"
fill="#000000" stroke="none">
<path d="M1662 4648 c-34 -18 -88 -83 -263 -313 l-220 -290 -217 -6 c-176 -5
-232 -10 -294 -27 -314 -85 -555 -315 -640 -609 l-23 -78 0 -1080 0 -1080 23
-78 c90 -313 360 -554 697 -621 72 -15 259 -16 1870 -14 l1790 3 75 23 c92 29
223 89 285 132 166 114 293 288 347 477 l23 78 0 1080 c0 1018 -1 1084 -18
1145 -45 158 -129 294 -251 406 -85 79 -151 121 -266 171 -128 55 -235 73
-445 73 l-180 0 -225 295 c-185 244 -231 299 -265 315 -40 19 -64 20 -902 20
l-860 0 -41 -22z m1888 -554 c170 -226 224 -291 260 -312 45 -27 47 -27 290
-33 270 -7 299 -12 425 -77 142 -74 268 -236 295 -381 6 -33 10 -431 10 -1055
0 -855 -2 -1010 -15 -1059 -52 -200 -223 -361 -441 -417 -75 -20 -118 -20
-1814 -20 -1696 0 -1739 0 -1814 20 -218 56 -389 217 -441 417 -22 86 -22
2050 0 2136 49 188 208 347 415 413 43 13 107 18 305 23 249 6 250 6 295 33
36 21 90 86 260 312 l215 285 770 0 770 0 215 -285z"/>
<path d="M2440 3381 c-385 -85 -683 -363 -797 -746 -25 -83 -27 -103 -27 -275
0 -159 3 -196 21 -262 82 -292 274 -534 532 -666 174 -90 349 -129 535 -119
437 24 804 304 940 717 127 387 25 797 -270 1080 -134 128 -272 208 -447 256
-128 36 -361 43 -487 15z m453 -308 c124 -43 189 -85 293 -188 77 -77 98 -105
138 -185 25 -52 54 -124 63 -160 24 -89 23 -281 -1 -369 -64 -234 -225 -421
-439 -510 -432 -179 -915 65 -1028 519 -28 112 -23 300 11 400 70 207 201 360
387 452 125 62 203 78 358 74 114 -2 141 -7 218 -33z"/>
</g>
</svg>
