<?xml version="1.0" standalone="no"?>
<!DOCTYPE svg PUBLIC "-//W3C//DTD SVG 20010904//EN"
 "http://www.w3.org/TR/2001/REC-SVG-20010904/DTD/svg10.dtd">
<svg version="1.0" xmlns="http://www.w3.org/2000/svg"
 width="512.000000pt" height="512.000000pt" viewBox="0 0 512.000000 512.000000"
 preserveAspectRatio="xMidYMid meet">

<g transform="translate(0.000000,512.000000) scale(0.100000,-0.100000)"
fill="#000000" stroke="none">
<path d="M2482 5107 c-52 -24 -2208 -1695 -2230 -1727 l-22 -33 2 -1623 c3
-1621 3 -1623 24 -1650 11 -15 33 -37 48 -48 27 -21 37 -21 798 -24 l770 -2
53 24 c64 29 115 78 146 142 l24 49 5 825 5 825 23 56 c66 165 198 272 368
301 198 33 400 -77 492 -269 l37 -78 5 -830 5 -830 23 -47 c32 -64 86 -116
148 -145 l52 -23 765 2 c755 3 766 3 793 24 15 11 37 33 48 48 21 27 21 29 24
1650 l2 1623 -23 33 c-24 37 -2207 1725 -2242 1734 -34 9 -119 5 -143 -7z"/>
</g>
</svg>
