<?xml version="1.0" standalone="no"?>
<!DOCTYPE svg PUBLIC "-//W3C//DTD SVG 20010904//EN"
 "http://www.w3.org/TR/2001/REC-SVG-20010904/DTD/svg10.dtd">
<svg version="1.0" xmlns="http://www.w3.org/2000/svg"
 width="48.000000pt" height="48.000000pt" viewBox="0 0 48.000000 48.000000"
 preserveAspectRatio="xMidYMid meet">

<g transform="translate(0.000000,48.000000) scale(0.100000,-0.100000)"
fill="#000000" stroke="none">
<path d="M162 400 c-13 -24 -24 -30 -50 -30 -19 0 -40 -8 -52 -20 -18 -18 -20
-33 -20 -140 0 -166 -7 -160 200 -160 207 0 200 -6 200 160 0 107 -2 122 -20
140 -12 12 -33 20 -52 20 -26 0 -37 6 -50 30 -16 28 -21 30 -78 30 -57 0 -62
-2 -78 -30z m140 -30 c14 -24 24 -30 51 -30 18 0 38 -5 45 -12 16 -16 16 -220
0 -236 -17 -17 -299 -17 -316 0 -16 16 -16 220 0 236 7 7 27 12 45 12 27 0 37
6 51 30 15 26 22 30 62 30 40 0 47 -4 62 -30z"/>
<path d="M179 281 c-20 -20 -29 -39 -29 -61 0 -43 47 -90 90 -90 43 0 90 47
90 90 0 43 -47 90 -90 90 -22 0 -41 -9 -61 -29z m101 -21 c25 -25 25 -55 0
-80 -11 -11 -29 -20 -40 -20 -26 0 -60 34 -60 60 0 11 9 29 20 40 11 11 29 20
40 20 11 0 29 -9 40 -20z"/>
</g>
</svg>
