<?xml version="1.0" standalone="no"?>
<!DOCTYPE svg PUBLIC "-//W3C//DTD SVG 20010904//EN"
 "http://www.w3.org/TR/2001/REC-SVG-20010904/DTD/svg10.dtd">
<svg version="1.0" xmlns="http://www.w3.org/2000/svg"
 width="512.000000pt" height="512.000000pt" viewBox="0 0 512.000000 512.000000"
 preserveAspectRatio="xMidYMid meet">

<g transform="translate(0.000000,512.000000) scale(0.100000,-0.100000)"
fill="#000000" stroke="none">
<path d="M585 4308 c-33 -17 -45 -40 -45 -80 0 -48 -1 -46 285 -299 127 -112
253 -224 280 -250 28 -25 68 -62 90 -80 55 -46 253 -223 1005 -894 172 -154
334 -298 359 -320 47 -41 607 -538 1410 -1250 254 -226 470 -413 479 -417 9
-4 34 -7 55 -7 66 -2 114 64 90 124 -3 10 -209 197 -457 418 -248 220 -461
409 -474 421 l-22 21 25 98 c32 127 41 256 25 351 -7 40 -15 79 -19 85 -5 7
-25 5 -66 -6 -93 -26 -256 -21 -376 10 -405 106 -693 441 -740 862 l-12 108
-59 -7 c-79 -8 -207 -41 -276 -72 -31 -14 -64 -24 -73 -22 -9 2 -166 136 -349
298 l-331 295 27 22 c55 43 234 144 334 188 462 202 962 226 1437 70 607 -200
1079 -677 1277 -1291 33 -101 60 -129 123 -129 38 0 49 5 74 33 36 40 36 65 3
166 -240 735 -834 1289 -1574 1469 -188 46 -319 61 -530 61 -216 0 -346 -15
-541 -64 -233 -58 -491 -172 -684 -304 -107 -73 -110 -74 -130 -57 -225 203
-505 445 -523 452 -31 12 -73 11 -97 -3z"/>
<path d="M1004 3648 c-229 -215 -440 -560 -550 -897 -31 -97 -31 -123 5 -163
25 -28 36 -33 74 -33 63 0 90 28 123 129 99 307 283 607 503 821 28 27 51 52
51 56 0 4 -34 37 -75 74 l-75 66 -56 -53z"/>
<path d="M1818 2925 c-106 -87 -219 -239 -284 -382 -261 -571 1 -1256 575
-1508 183 -81 425 -114 622 -86 170 25 368 107 510 212 80 59 210 193 263 272
l40 58 -25 23 c-13 13 -269 241 -569 507 -300 266 -547 486 -550 489 -3 3 -63
57 -135 120 -71 63 -187 165 -256 227 -70 62 -129 113 -132 113 -2 0 -29 -20
-59 -45z"/>
</g>
</svg>
