<?xml version="1.0" standalone="no"?>
<!DOCTYPE svg PUBLIC "-//W3C//DTD SVG 20010904//EN"
 "http://www.w3.org/TR/2001/REC-SVG-20010904/DTD/svg10.dtd">
<svg version="1.0" xmlns="http://www.w3.org/2000/svg"
 width="1000.000000pt" height="1000.000000pt" viewBox="0 0 1000.000000 1000.000000"
 preserveAspectRatio="xMidYMid meet">

<g transform="translate(0.000000,1000.000000) scale(0.100000,-0.100000)"
fill="#000000" stroke="none">
<path d="M2498 6891 c3 -31 7 -38 19 -34 13 5 13 2 5 -14 -15 -27 10 -63 44
-63 28 0 33 33 9 60 -14 16 -13 17 11 14 33 -3 44 -19 44 -61 0 -30 3 -33 30
-33 17 0 44 6 59 14 25 14 28 20 30 77 1 35 4 66 7 71 3 4 -55 8 -128 8 l-134
0 4 -39z m196 -43 c-3 -4 -12 -8 -20 -8 -8 0 -14 4 -14 8 0 4 9 8 19 8 11 0
17 -4 15 -8z"/>
<path d="M3000 6860 c0 -60 3 -70 18 -70 14 0 15 -2 2 -10 -8 -5 -11 -12 -7
-16 3 -4 12 -2 19 4 14 11 179 21 172 11 -2 -4 3 -10 12 -13 24 -9 31 -7 14 4
-13 8 -13 10 1 10 13 0 16 14 18 75 l2 75 -125 0 -126 0 0 -70z"/>
<path d="M3494 6922 c3 -5 6 -39 7 -76 l2 -67 121 3 121 3 3 73 3 72 -131 0
c-72 0 -129 -4 -126 -8z"/>
<path d="M4002 6858 c3 -69 4 -73 28 -77 23 -3 24 -4 5 -12 -15 -6 -11 -8 19
-8 31 -1 37 2 32 15 -7 20 18 70 40 78 24 9 27 3 13 -28 -16 -35 -8 -40 36
-26 20 7 44 10 54 7 16 -4 18 3 19 59 l1 64 -125 0 -125 0 3 -72z"/>
<path d="M4498 6864 c2 -37 8 -72 14 -78 7 -7 47 -9 122 -6 l111 5 3 73 3 72
-128 0 -128 0 3 -66z"/>
<path d="M5000 6860 c0 -60 3 -70 18 -70 14 0 15 -2 2 -10 -8 -5 -11 -12 -7
-16 3 -4 12 -2 19 4 14 11 179 21 172 11 -2 -4 3 -10 12 -13 24 -9 31 -7 14 4
-13 8 -13 10 1 10 13 0 16 14 18 75 l2 75 -125 0 -126 0 0 -70z"/>
<path d="M5494 6922 c3 -5 6 -39 7 -76 l2 -68 96 2 c128 2 133 2 125 -11 -4
-7 -1 -10 7 -7 10 3 15 28 17 86 l4 82 -132 0 c-72 0 -129 -4 -126 -8z"/>
<path d="M6001 6860 c0 -67 10 -89 23 -53 4 9 2 21 -4 27 -16 16 -12 30 5 16
12 -10 15 -10 15 1 0 9 4 7 11 -5 6 -10 9 -33 6 -52 l-6 -34 47 0 c34 0 43 3
32 10 -11 7 3 10 46 10 71 0 74 3 74 85 l0 52 -37 7 c-21 3 -77 6 -125 6 l-87
0 0 -70z"/>
<path d="M2185 6841 c-33 -21 -71 -50 -84 -65 l-24 -26 82 0 c93 0 94 1 89 79
l-3 51 -60 -39z"/>
<path d="M3685 6770 c3 -5 8 -10 11 -10 2 0 4 5 4 10 0 6 -5 10 -11 10 -5 0
-7 -4 -4 -10z"/>
<path d="M5686 6765 c4 -8 8 -15 10 -15 2 0 4 7 4 15 0 8 -4 15 -10 15 -5 0
-7 -7 -4 -15z"/>
<path d="M6500 6772 c0 -12 19 -26 26 -19 2 2 -2 10 -11 17 -9 8 -15 8 -15 2z"/>
<path d="M2250 6718 c0 -30 5 -35 50 -55 45 -20 50 -20 51 -5 0 12 3 11 9 -5
5 -13 11 -23 12 -23 2 0 3 27 3 60 l0 60 -62 0 -63 0 0 -32z"/>
<path d="M6858 6713 c23 -46 48 -114 62 -170 10 -40 13 -43 45 -43 l35 0 0
-119 c0 -81 4 -122 12 -127 8 -5 9 -2 5 11 -7 16 -6 17 17 1 36 -23 43 -20 38
13 -2 17 3 44 12 61 15 30 14 34 -13 83 -16 29 -27 57 -25 62 2 6 -5 11 -17
12 -28 2 -29 3 -31 52 -1 23 -5 44 -10 47 -4 3 -6 10 -3 15 4 5 1 9 -5 9 -7 0
-9 7 -6 16 3 8 2 13 -3 10 -5 -3 -15 2 -22 11 -12 14 -12 16 1 8 8 -4 -5 13
-30 39 -24 25 -52 46 -62 46 -18 0 -18 -2 0 -37z"/>
<path d="M2416 6721 c-9 -13 3 -38 20 -45 10 -4 12 -2 8 6 -5 8 -2 9 11 4 16
-6 17 -5 3 16 -17 25 -34 33 -42 19z"/>
<path d="M1979 6618 c-11 -22 -27 -58 -35 -80 l-13 -38 34 0 35 0 0 -125 0
-125 -45 0 -45 0 0 -125 0 -125 45 0 45 0 0 -125 0 -125 -45 0 -45 0 0 -125 0
-125 45 0 45 0 0 -125 0 -125 -45 0 -45 0 0 -125 0 -125 45 0 45 0 0 -125 0
-125 -45 0 -45 0 0 -125 0 -125 45 0 45 0 0 -125 0 -125 -45 0 -45 0 0 -125 0
-125 45 0 45 0 0 -125 0 -125 -46 0 -47 0 6 -102 c8 -139 11 -148 53 -148 l34
0 0 -79 c0 -74 2 -82 33 -123 24 -31 41 -43 60 -44 18 -1 24 3 18 10 -4 6 -11
28 -15 49 -4 21 -10 36 -14 33 -4 -2 -8 28 -10 67 -2 39 -6 75 -8 79 -3 4 -18
8 -35 8 l-29 0 0 124 0 124 30 6 31 6 -3 117 -3 118 -27 3 -28 3 0 125 c0 123
0 124 23 124 23 0 73 29 51 30 -16 0 -18 168 -3 187 15 18 -2 33 -39 33 -29 0
-54 23 -46 43 7 21 12 63 13 140 1 61 3 67 22 67 17 0 19 3 10 13 -8 10 -7 17
1 25 16 16 33 15 48 -3 7 -9 15 -14 17 -11 8 8 -20 85 -28 80 -5 -3 -9 24 -9
60 0 42 4 66 13 69 6 2 -7 7 -30 11 l-43 8 0 124 c0 116 1 124 19 124 44 0 46
5 43 115 -3 81 -1 105 9 105 7 0 5 6 -7 15 -10 8 -29 15 -41 15 -23 0 -23 2
-23 124 l0 124 30 6 31 6 -3 117 -3 118 -27 3 -28 3 0 125 c0 116 1 124 19
124 32 0 51 11 51 29 0 10 3 21 6 24 4 4 8 22 10 40 4 42 44 137 58 137 6 0 4
5 -4 10 -8 5 -43 10 -78 10 l-64 0 4 80 c2 44 2 80 1 80 -2 0 -12 -19 -24 -42z"/>
<path d="M2290 6599 c7 -11 14 -19 16 -16 7 7 -7 37 -17 37 -6 0 -5 -9 1 -21z"/>
<path d="M7998 6309 c-3 -59 -5 -63 -25 -62 -13 0 -68 1 -122 2 l-100 1 -3 40
-3 40 -60 -40 -60 -40 63 0 62 0 0 -72 c0 -40 5 -80 10 -88 6 -10 10 -11 10
-2 0 6 11 12 24 12 15 0 26 7 29 20 5 18 81 58 100 52 4 -1 7 5 7 13 0 8 7 15
15 15 8 0 15 4 15 10 0 5 6 7 13 5 6 -3 17 5 22 17 8 18 18 23 48 22 20 0 37
4 37 8 0 17 -29 63 -54 87 l-25 24 -3 -64z"/>
<path d="M7110 6304 c0 -3 7 -12 15 -20 16 -17 18 -14 9 10 -6 15 -24 23 -24
10z"/>
<path d="M6940 6180 c0 -67 1 -70 19 -60 29 15 36 30 37 83 0 45 -1 47 -28 47
l-28 0 0 -70z"/>
<path d="M8340 6125 l0 -125 63 0 c34 0 68 4 75 9 19 11 14 178 -5 185 -7 3
-13 14 -13 25 0 21 -25 31 -82 31 l-38 0 0 -125z"/>
<path d="M7365 6085 c-71 -47 -131 -85 -132 -85 -2 0 -55 -34 -118 -75 l-115
-74 0 -51 c0 -49 -1 -50 -30 -50 l-30 0 0 -125 0 -125 30 0 30 0 0 -125 0
-125 -30 0 -30 0 0 -125 0 -125 30 0 30 0 0 -125 0 -125 -30 0 -30 0 0 -125 0
-125 30 0 30 0 0 -125 0 -125 -30 0 c-26 0 -30 -4 -30 -28 0 -20 8 -32 30 -45
l30 -18 0 45 0 46 38 0 c63 0 65 5 61 126 -2 60 -8 112 -14 116 -5 4 -27 8
-47 8 l-38 0 0 125 0 125 38 0 c59 0 61 4 59 123 -1 65 2 107 8 108 20 2 -41
17 -72 18 l-33 1 0 125 0 125 34 0 c66 0 66 1 66 125 0 124 0 125 -66 125
l-34 0 0 124 0 124 114 4 c63 1 118 7 123 11 4 5 10 60 12 123 l3 114 124 0
c122 0 124 0 124 -22 0 -35 12 -47 38 -37 12 5 22 13 22 19 0 5 14 10 30 10
53 0 32 19 -30 26 l-59 6 -3 84 -3 84 -130 -85z"/>
<path d="M8340 5625 l0 -125 76 0 76 0 -4 114 c-2 63 0 112 5 109 4 -2 7 1 7
6 0 6 -3 11 -7 12 -5 0 -41 3 -80 5 l-73 4 0 -125z"/>
<path d="M8340 5125 l0 -125 59 0 c94 0 91 -4 91 125 0 129 3 125 -91 125
l-59 0 0 -125z"/>
<path d="M8340 4626 l0 -126 63 0 c72 0 83 6 84 40 0 14 1 61 2 105 1 44 2 85
2 91 -1 7 -30 12 -76 13 l-75 2 0 -125z"/>
<path d="M8340 4125 l0 -125 59 0 c94 0 91 -4 91 125 0 129 3 125 -91 125
l-59 0 0 -125z"/>
<path d="M7000 3805 c0 -54 0 -55 -30 -55 l-30 0 0 -99 c0 -54 -3 -112 -6
-128 -6 -28 -5 -29 30 -25 l36 4 0 -120 c0 -67 4 -123 9 -126 5 -3 22 -3 39 0
23 5 28 10 25 25 -3 11 -1 25 5 32 5 6 12 50 14 97 l3 85 -47 3 -48 3 0 125 0
124 43 1 c23 1 60 0 82 -1 22 -1 38 0 35 3 -3 2 -40 27 -82 56 l-78 52 0 -56z"/>
<path d="M8336 3733 c-2 -10 -8 -34 -11 -53 -13 -62 -66 -154 -117 -202 -43
-41 -131 -92 -190 -112 -14 -4 -18 -17 -18 -61 l0 -55 -55 0 c-61 0 -73 -14
-22 -25 17 -4 38 -12 45 -18 14 -11 32 5 32 31 0 9 27 12 103 12 158 0 147 -9
147 131 l0 119 93 0 c99 0 140 7 131 21 -3 5 0 9 6 9 8 0 11 30 8 99 -2 55 0
97 5 94 4 -2 7 0 7 5 0 14 -37 22 -102 22 -45 0 -58 -3 -62 -17z"/>
<path d="M7250 3665 c0 -18 7 -28 25 -35 14 -5 25 -12 25 -15 0 -4 -5 -3 -12
1 -7 4 -8 3 -4 -5 4 -6 11 -9 15 -6 5 2 34 -13 65 -35 32 -22 62 -37 68 -34 6
4 8 2 5 -3 -4 -6 8 -17 26 -24 17 -7 40 -24 50 -36 10 -13 28 -23 40 -23 28 0
42 -11 42 -30 0 -8 6 -14 13 -12 6 1 12 -2 12 -8 0 -5 10 -10 21 -10 12 0 37
-16 56 -35 37 -38 53 -38 53 0 0 18 -10 30 -37 44 -21 11 -65 38 -98 60 -34
23 -72 41 -87 41 -20 0 -28 5 -28 18 0 11 -42 44 -120 95 -66 42 -122 77 -125
77 -3 0 -5 -11 -5 -25z"/>
<path d="M6795 3179 c-45 -66 -48 -75 -46 -125 l2 -54 -59 0 c-52 0 -66 -5
-125 -42 l-66 -43 -1 -83 0 -83 48 5 c26 2 72 5 102 6 43 2 50 4 30 10 l-25 8
28 1 c18 1 26 5 21 12 -4 7 0 9 13 5 22 -7 22 -6 29 117 l5 87 57 0 c31 0 81
3 109 6 50 6 52 8 46 32 -5 21 -3 24 11 19 17 -7 18 2 20 148 l1 40 -75 3 -76
3 -49 -72z"/>
<path d="M2099 2884 c58 -54 111 -98 118 -96 7 2 13 -2 13 -8 0 -5 5 -10 10
-10 6 0 10 20 10 45 0 30 -4 45 -13 45 -17 0 -170 74 -211 102 -17 11 16 -24
73 -78z"/>
<path d="M6113 2823 l-113 -4 0 -34 0 -35 -125 0 -125 0 0 35 0 35 -125 0
-125 0 0 -35 0 -35 -125 0 -125 0 0 35 0 35 -125 0 -125 0 0 -35 0 -35 -125 0
-125 0 0 35 0 35 -125 0 -125 0 0 -35 0 -35 -125 0 -125 0 0 35 0 35 -125 0
-125 0 0 -35 0 -35 -125 0 -125 0 0 35 0 35 -125 0 -125 0 0 -35 0 -35 -125 0
-125 0 0 35 0 35 -125 0 -125 0 0 -35 0 -35 -125 0 -125 0 0 35 0 35 -125 0
-125 0 0 -35 0 -35 -95 0 c-52 0 -95 -4 -95 -8 0 -5 33 -18 73 -31 39 -12 80
-27 89 -32 15 -8 19 -3 24 31 l7 40 123 0 124 0 0 -32 c0 -18 4 -37 8 -43 4
-6 55 -10 117 -10 62 0 113 4 117 10 4 6 8 25 8 43 l0 32 125 0 125 0 0 -32
c0 -18 4 -37 8 -43 4 -6 55 -10 117 -10 62 0 113 4 117 10 4 6 8 24 8 42 l0
32 93 3 c136 5 157 1 157 -25 0 -12 3 -32 6 -44 6 -21 10 -22 110 -18 67 2
106 -1 111 -8 9 -14 21 19 22 61 l1 32 125 0 125 0 0 -32 c0 -18 4 -38 8 -43
9 -14 224 -13 234 0 4 6 8 25 8 43 l0 32 125 0 125 0 0 -32 c0 -18 4 -37 8
-43 4 -6 55 -10 117 -10 62 0 113 4 117 10 4 6 8 25 8 43 l0 32 125 0 125 0 0
-32 c0 -18 4 -37 8 -43 4 -6 55 -10 117 -10 62 0 113 4 117 10 4 6 8 25 8 43
l0 32 125 0 c123 0 125 0 125 -22 1 -66 2 -67 116 -63 67 2 106 -1 111 -8 9
-14 21 19 22 61 l1 32 125 0 125 0 0 -32 c0 -18 4 -38 8 -44 9 -14 90 -11 127
5 17 7 47 11 67 9 32 -3 37 -1 41 22 3 14 3 28 0 32 -2 5 -58 8 -125 8 l-120
0 4 40 c3 32 0 40 -12 38 -8 -1 -66 -4 -127 -5z"/>
<path d="M160 2296 c0 -20 3 -36 8 -36 4 0 17 -3 28 -6 17 -5 24 1 33 26 13
38 36 35 36 -3 -1 -15 3 -27 7 -27 16 0 21 31 9 56 -14 31 -51 29 -66 -3 -12
-28 -35 -30 -35 -4 0 11 -4 23 -10 26 -6 4 -10 -8 -10 -29z"/>
<path d="M270 2209 c0 -19 -1 -19 -22 -5 -35 25 -76 21 -84 -8 -6 -25 1 -46
15 -46 4 0 7 10 7 23 -1 32 36 35 60 5 35 -44 44 -43 44 6 0 25 -4 46 -10 46
-5 0 -10 -9 -10 -21z"/>
<path d="M160 2096 c0 -25 5 -46 10 -46 6 0 10 14 10 31 0 27 3 30 23 24 12
-4 32 -13 44 -21 26 -16 43 -18 43 -4 0 8 -62 40 -109 55 -19 6 -21 2 -21 -39z"/>
<path d="M177 2022 c-21 -23 -21 -36 -1 -56 34 -35 114 -9 114 37 0 37 -85 51
-113 19z m84 -18 c10 -13 10 -17 -2 -25 -22 -14 -55 -11 -70 7 -10 13 -10 17
2 25 22 14 55 11 70 -7z"/>
<path d="M176 1917 c-11 -8 -17 -23 -14 -37 4 -30 25 -38 24 -9 -1 12 5 24 12
26 6 3 12 -2 12 -11 0 -23 17 -20 23 5 8 29 32 18 32 -14 -1 -30 12 -36 22
-11 14 38 -42 87 -62 54 -5 -8 -11 -8 -19 -1 -9 8 -18 7 -30 -2z"/>
<path d="M176 1817 c-11 -8 -17 -22 -14 -37 4 -30 25 -38 24 -8 -1 34 28 33
68 -2 l36 -32 0 46 c0 25 -4 46 -10 46 -5 0 -10 -12 -10 -26 0 -26 0 -26 -17
-6 -24 27 -55 35 -77 19z"/>
<path d="M235 1720 c-4 -6 -16 -8 -26 -5 -24 8 -49 -11 -49 -36 0 -23 11 -29
62 -35 47 -4 68 8 68 40 0 36 -39 62 -55 36z m-27 -37 c-4 -22 -22 -20 -26 1
-2 10 3 16 13 16 10 0 15 -7 13 -17z m60 0 c-2 -10 -10 -18 -18 -18 -8 0 -16
8 -18 18 -2 12 3 17 18 17 15 0 20 -5 18 -17z"/>
<path d="M160 1602 c0 -5 7 -17 15 -28 14 -18 14 -18 15 -1 0 15 7 18 38 16
51 -3 62 -1 62 11 0 6 -28 10 -65 10 -36 0 -65 -4 -65 -8z"/>
<path d="M270 1529 c0 -19 -1 -19 -22 -5 -35 25 -76 21 -84 -8 -6 -25 1 -46
15 -46 4 0 7 10 7 23 -1 32 34 34 64 2 32 -34 40 -32 40 15 0 22 -4 40 -10 40
-5 0 -10 -9 -10 -21z"/>
<path d="M190 1450 c0 -5 -8 -7 -17 -4 -17 5 -17 5 0 -9 9 -8 17 -17 17 -20 0
-3 -8 -8 -17 -10 -17 -4 -17 -5 0 -6 9 0 17 -6 17 -12 0 -6 7 -8 17 -5 9 4 19
2 23 -4 4 -7 15 -7 30 -2 19 7 21 10 7 15 -23 9 -22 28 1 20 13 -5 12 -1 -5
15 -13 13 -29 19 -37 16 -9 -3 -16 -1 -16 5 0 6 -4 11 -10 11 -5 0 -10 -4 -10
-10z m40 -40 c0 -5 -4 -10 -10 -10 -5 0 -10 5 -10 10 0 6 5 10 10 10 6 0 10
-4 10 -10z"/>
<path d="M135 1280 c3 -6 48 -10 101 -10 56 0 94 4 94 10 0 6 -40 10 -101 10
-64 0 -98 -4 -94 -10z"/>
<path d="M260 1190 c-23 -17 -26 -17 -42 -3 -10 9 -21 13 -26 9 -4 -4 4 -16
17 -27 l23 -19 -46 0 c-34 0 -46 -4 -46 -15 0 -12 15 -15 75 -15 60 0 75 3 75
15 0 9 -9 15 -21 15 -21 0 -21 0 1 18 32 26 22 46 -10 22z"/>
<path d="M190 1081 c0 -41 59 -68 88 -39 13 13 17 58 4 58 -4 0 -12 -10 -17
-22 -6 -13 -19 -23 -30 -23 -13 0 -21 8 -23 23 -4 27 -22 30 -22 3z"/>
<path d="M208 999 c-21 -12 -24 -49 -6 -67 19 -19 66 -15 78 7 14 27 13 37 -6
55 -18 18 -41 20 -66 5z m57 -34 c0 -22 -31 -33 -47 -17 -17 17 -1 44 24 40
15 -2 23 -10 23 -23z"/>
<path d="M190 900 c0 -5 -7 -10 -15 -10 -21 0 -19 -13 4 -27 26 -16 104 5 109
30 2 9 -1 17 -7 17 -6 0 -11 -4 -11 -10 0 -5 -13 -10 -30 -10 -16 0 -30 5 -30
10 0 6 -4 10 -10 10 -5 0 -10 -4 -10 -10z"/>
<path d="M157 833 c-11 -11 -8 -48 5 -61 20 -20 46 -13 68 18 24 34 44 30 37
-6 -2 -13 0 -24 5 -24 16 0 21 31 10 56 -16 34 -49 31 -70 -6 -19 -33 -37 -34
-37 -2 -1 24 -9 35 -18 25z"/>
<path d="M200 675 c-21 -25 3 -65 38 -65 15 0 33 5 40 12 15 15 16 54 2 63 -6
3 -10 -5 -10 -19 0 -14 -4 -28 -10 -31 -6 -4 -10 7 -10 24 0 24 -4 31 -19 31
-10 0 -24 -7 -31 -15z m30 -26 c0 -11 -4 -17 -10 -14 -5 3 -10 13 -10 21 0 8
5 14 10 14 6 0 10 -9 10 -21z"/>
<path d="M197 560 c-8 -21 -18 -30 -34 -30 -14 0 -23 -6 -23 -15 0 -13 13 -15
73 -13 67 3 72 5 75 26 5 30 -24 62 -55 62 -18 0 -28 -8 -36 -30z m61 -2 c19
-19 14 -28 -18 -28 -18 0 -30 5 -30 13 0 28 27 36 48 15z"/>
<path d="M202 468 c-15 -15 -15 -51 0 -66 19 -19 66 -15 78 7 14 27 13 37 -6
55 -18 19 -55 21 -72 4z m63 -33 c0 -13 -8 -21 -23 -23 -26 -4 -42 25 -21 39
22 14 44 6 44 -16z"/>
<path d="M140 356 c0 -10 8 -16 23 -16 16 0 26 -9 34 -31 10 -27 16 -30 45
-27 25 2 35 9 42 31 14 39 -2 50 -79 55 -55 4 -65 2 -65 -12z m130 -31 c0 -21
-27 -30 -45 -15 -23 19 -18 30 15 30 20 0 30 -5 30 -15z"/>
<path d="M220 246 c-36 -12 -66 -29 -68 -37 -2 -9 17 -20 55 -32 32 -10 64
-20 71 -23 6 -3 12 1 12 10 0 9 -8 16 -20 16 -15 0 -20 7 -20 26 0 17 6 28 20
31 11 3 20 12 20 19 0 8 -1 14 -2 14 -2 -1 -32 -11 -68 -24z m8 -51 c-7 -7
-48 7 -48 15 0 15 45 16 48 2 2 -8 2 -15 0 -17z"/>
</g>
</svg>
