<?xml version="1.0" standalone="no"?>
<!DOCTYPE svg PUBLIC "-//W3C//DTD SVG 20010904//EN"
 "http://www.w3.org/TR/2001/REC-SVG-20010904/DTD/svg10.dtd">
<svg version="1.0" xmlns="http://www.w3.org/2000/svg"
 width="512.000000pt" height="512.000000pt" viewBox="0 0 512.000000 512.000000"
 preserveAspectRatio="xMidYMid meet">

<g transform="translate(0.000000,512.000000) scale(0.100000,-0.100000)"
fill="#000000" stroke="none">
<path d="M2400 4284 c-205 -19 -429 -68 -596 -129 -647 -240 -1136 -748 -1350
-1404 -31 -97 -31 -123 5 -163 25 -28 36 -33 74 -33 63 0 90 28 123 129 236
731 858 1260 1613 1370 314 46 616 20 918 -79 607 -200 1079 -677 1277 -1291
33 -101 60 -129 123 -129 38 0 49 5 74 33 36 40 36 65 3 166 -264 808 -944
1385 -1784 1511 -104 15 -393 27 -480 19z"/>
<path d="M2335 3183 c-467 -99 -819 -472 -890 -943 -19 -120 -19 -210 -1 -330
69 -457 392 -816 845 -938 87 -23 113 -26 281 -26 157 0 197 4 260 21 228 63
370 144 526 298 115 114 162 178 227 305 69 137 117 331 117 469 -1 58 -21
185 -32 196 -2 2 -31 -3 -63 -12 -93 -26 -256 -21 -376 10 -405 106 -693 441
-740 861 l-12 106 -36 -1 c-20 0 -67 -7 -106 -16z"/>
</g>
</svg>
